<svg width="0" height="0" class="hidden">
  <symbol xmlns="http://www.w3.org/2000/svg" viewBox="0 0 384 512" id="ghost-solid">
    <path d="M40.1 467.1l-11.2 9c-3.2 2.5-7.1 3.9-11.1 3.9C8 480 0 472 0 462.2V192C0 86 86 0 192 0S384 86 384 192V462.2c0 9.8-8 17.8-17.8 17.8c-4 0-7.9-1.4-11.1-3.9l-11.2-9c-13.4-10.7-32.8-9-44.1 3.9L269.3 506c-3.3 3.8-8.2 6-13.3 6s-9.9-2.2-13.3-6l-26.6-30.5c-12.7-14.6-35.4-14.6-48.2 0L141.3 506c-3.3 3.8-8.2 6-13.3 6s-9.9-2.2-13.3-6L84.2 471c-11.3-12.9-30.7-14.6-44.1-3.9zM160 192a32 32 0 1 0 -64 0 32 32 0 1 0 64 0zm96 32a32 32 0 1 0 0-64 32 32 0 1 0 0 64z"></path>
  </symbol>
  <symbol xmlns="http://www.w3.org/2000/svg" viewBox="0 0 512 512" id="meteor-solid">
    <path d="M493.7 .9L299.4 75.6l2.3-29.3c1-12.8-12.8-21.5-24-15.1L101.3 133.4C38.6 169.7 0 236.6 0 309C0 421.1 90.9 512 203 512c72.4 0 139.4-38.6 175.7-101.3L480.8 234.3c6.5-11.1-2.2-25-15.1-24l-29.3 2.3L511.1 18.3c.6-1.5 .9-3.2 .9-4.8C512 6 506 0 498.5 0c-1.7 0-3.3 .3-4.8 .9zM192 192a128 128 0 1 1 0 256 128 128 0 1 1 0-256zm0 96a32 32 0 1 0 -64 0 32 32 0 1 0 64 0zm16 96a16 16 0 1 0 0-32 16 16 0 1 0 0 32z"></path>
  </symbol>
  <symbol xmlns="http://www.w3.org/2000/svg" viewBox="0 0 512 512" id="volcano-solid">
    <path d="M160 144c-35.3 0-64-28.7-64-64s28.7-64 64-64c15.7 0 30 5.6 41.2 15C212.4 12.4 232.7 0 256 0s43.6 12.4 54.8 31C322 21.6 336.3 16 352 16c35.3 0 64 28.7 64 64s-28.7 64-64 64c-14.7 0-28.3-5-39.1-13.3l-32 48C275.3 187 266 192 256 192s-19.3-5-24.9-13.3l-32-48C188.3 139 174.7 144 160 144zM144 352l48.4-24.2c10.2-5.1 21.6-7.8 33-7.8c19.6 0 38.4 7.8 52.2 21.6l32.5 32.5c6.3 6.3 14.9 9.9 23.8 9.9c11.3 0 21.8-5.6 28-15l9.7-14.6-58.9-66.3c-9.1-10.2-22.2-16.1-35.9-16.1H235.1c-13.7 0-26.8 5.9-35.9 16.1l-59.9 67.4L144 352zm19.4-95.8c18.2-20.5 44.3-32.2 71.8-32.2h41.8c27.4 0 53.5 11.7 71.8 32.2l150.2 169c8.5 9.5 13.2 21.9 13.2 34.7c0 28.8-23.4 52.2-52.2 52.2H52.2C23.4 512 0 488.6 0 459.8c0-12.8 4.7-25.1 13.2-34.7l150.2-169z"></path>
  </symbol>
  <symbol xmlns="http://www.w3.org/2000/svg" viewBox="0 0 448 512" id="snowflake-solid">
    <path d="M224 0c17.7 0 32 14.3 32 32V62.1l15-15c9.4-9.4 24.6-9.4 33.9 0s9.4 24.6 0 33.9l-49 49v70.3l61.4-35.8 17.7-66.1c3.4-12.8 16.6-20.4 29.4-17s20.4 16.6 17 29.4l-5.2 19.3 23.6-13.8c15.3-8.9 34.9-3.7 43.8 11.5s3.8 34.9-11.5 43.8l-25.3 14.8 21.7 5.8c12.8 3.4 20.4 16.6 17 29.4s-16.6 20.4-29.4 17l-67.7-18.1L287.5 256l60.9 35.5 67.7-18.1c12.8-3.4 26 4.2 29.4 17s-4.2 26-17 29.4l-21.7 5.8 25.3 14.8c15.3 8.9 20.4 28.5 11.5 43.8s-28.5 20.4-43.8 11.5l-23.6-13.8 5.2 19.3c3.4 12.8-4.2 26-17 29.4s-26-4.2-29.4-17l-17.7-66.1L256 311.7v70.3l49 49c9.4 9.4 9.4 24.6 0 33.9s-24.6 9.4-33.9 0l-15-15V480c0 17.7-14.3 32-32 32s-32-14.3-32-32V449.9l-15 15c-9.4 9.4-24.6 9.4-33.9 0s-9.4-24.6 0-33.9l49-49V311.7l-61.4 35.8-17.7 66.1c-3.4 12.8-16.6 20.4-29.4 17s-20.4-16.6-17-29.4l5.2-19.3L48.1 395.6c-15.3 8.9-34.9 3.7-43.8-11.5s-3.7-34.9 11.5-43.8l25.3-14.8-21.7-5.8c-12.8-3.4-20.4-16.6-17-29.4s16.6-20.4 29.4-17l67.7 18.1L160.5 256 99.6 220.5 31.9 238.6c-12.8 3.4-26-4.2-29.4-17s4.2-26 17-29.4l21.7-5.8L15.9 171.6C.6 162.7-4.5 143.1 4.4 127.9s28.5-20.4 43.8-11.5l23.6 13.8-5.2-19.3c-3.4-12.8 4.2-26 17-29.4s26 4.2 29.4 17l17.7 66.1L192 200.3V129.9L143 81c-9.4-9.4-9.4-24.6 0-33.9s24.6-9.4 33.9 0l15 15V32c0-17.7 14.3-32 32-32z"></path>
  </symbol>
  <symbol xmlns="http://www.w3.org/2000/svg" viewBox="0 0 640 512" id="cloud-solid">
    <path d="M0 336c0 79.5 64.5 144 144 144H512c70.7 0 128-57.3 128-128c0-61.9-44-113.6-102.4-125.4c4.1-10.7 6.4-22.4 6.4-34.6c0-53-43-96-96-96c-19.7 0-38.1 6-53.3 16.2C367 64.2 315.3 32 256 32C167.6 32 96 103.6 96 192c0 2.7 .1 5.4 .2 8.1C40.2 219.8 0 273.2 0 336z"></path>
  </symbol>
</svg>